<svg width="64" height="64" xmlns="http://www.w3.org/2000/svg" xmlns:xlink="http://www.w3.org/1999/xlink" version="1.1" x="0px" y="0px" viewBox="0 0 105 131.25" enable-background="new 0 0 105 105" xml:space="preserve"><g><g><path fill-rule="evenodd" clip-rule="evenodd" fill="#000000" d="M14.293,34.211c0.071-1.153-0.188-2.918,0.186-4.666    c0.252-1.179,0.592-2.295,1.429-3.207c1.899-2.07,3.803-4.137,5.684-6.224c1.91-2.119,4.479-3.238,6.921-4.52    c6.88-3.607,13.806-7.125,20.922-10.254c0.902-0.396,1.866-0.732,2.573-1.513c0.322-0.355,0.921-0.312,1.19-0.084    c1.965,1.663,4.44,2.296,6.675,3.406c6.893,3.422,13.945,6.566,20.49,10.623c4.996,3.098,8.938,7.241,10.254,13.3    c0.078,0.362,0.089,0.708,0.095,1.062c0.104,6.407-0.261,12.804-0.702,19.188c-0.211,3.065-0.846,6.115-1.593,9.116    c-0.429,1.723-1.4,2.938-3.075,3.771c-2.928,1.458-5.734,3.158-8.604,4.736c-0.643,0.353-0.971,0.814-1.137,1.56    c-1.939,8.736-3.922,17.464-5.896,26.192c-0.229,1.012-0.502,2.014-0.714,3.029c-0.165,0.791-0.593,1.306-1.386,1.451    c-1.744,0.322-3.498,0.361-5.236-0.023c-0.852-0.189-1.297-0.716-1.377-1.673c-0.23-2.779,0.064-5.544,0.148-8.312    c0.099-3.272,0.371-6.539,0.582-9.809c0.144-2.227,0.293-4.454,0.479-6.678c0.068-0.81,0.037-1.204-1.031-1.072    c-2.75,0.339-5.52,0.69-8.281,0.689c-2.907-0.001-5.818-0.36-8.718-0.657c-0.951-0.098-1.291-0.124-1.152,1.066    c0.22,1.883,0.271,3.795,0.333,5.699c0.104,3.166,0.428,6.323,0.651,9.484c0.216,3.059,0.245,6.121,0.206,9.185    c-0.019,1.466-0.569,2.17-2.007,2.264c-1.429,0.092-2.874,0.124-4.312-0.053c-0.984-0.121-1.499-0.645-1.716-1.599    c-1.45-6.372-2.923-12.738-4.383-19.108c-0.787-3.433-1.568-6.866-2.333-10.304c-0.126-0.566-0.4-0.935-0.917-1.217    c-2.938-1.601-5.807-3.342-8.809-4.811c-1.881-0.921-2.864-2.304-3.265-4.244c-0.91-4.401-1.792-8.81-1.824-13.329    C14.616,42.719,14.179,38.774,14.293,34.211z M81.493,48.358c0.02-0.082,0.039-0.164,0.059-0.246    c-0.079,0.022-0.157,0.044-0.236,0.066c-0.073,0.072-0.147,0.145-0.221,0.216c-1.657,1.389-3.374,2.688-5.244,3.789    c-2.8,1.65-5.562,3.354-8.91,3.671c-0.356,0.033-0.771,0.008-1.105,0.311c0.695,0.53,1.409,0.68,2.245,0.481    c1.578-0.374,3.168-0.69,4.715-1.192c3.721-1.209,6.887-3.109,8.555-6.872C81.397,48.508,81.445,48.434,81.493,48.358z     M23.958,48.348c0.051,0.079,0.101,0.158,0.151,0.237c1.129,2.006,2.183,4.036,4.433,5.116c2.603,1.249,5.277,2.262,8.051,3.059    c1.104,0.316,1.806-0.067,2.664-0.829c-3.043-0.518-5.836-1.273-8.377-2.779c-2.328-1.379-4.477-3.001-6.53-4.754    c-0.078-0.067-0.157-0.136-0.235-0.203c-0.077-0.032-0.154-0.065-0.231-0.099C23.908,48.18,23.933,48.264,23.958,48.348z     M26.322,49.031c0.085,0.056,0.17,0.111,0.255,0.167c3.713,3.104,7.828,5.358,12.695,6.055c1.738,0.249,1.731,0.288,1.904,1.985    c0.051,0.501,0.118,1.001,0.16,1.503c0.366,4.306,0.734,8.611,1.082,12.919c0.04,0.49,0.124,0.778,0.705,0.855    c6.061,0.808,12.115,0.915,18.195,0.125c1.236-0.16,1.368-0.693,1.434-1.695c0.324-4.922,0.717-9.839,1.064-14.76    c0.042-0.596,0.377-0.693,0.856-0.718c5.528-0.286,9.907-3.179,14.195-6.272c0.03-0.073,0.06-0.147,0.09-0.222    c-0.083,0.004-0.167,0.008-0.25,0.011c-5.079,2.843-10.502,4.085-16.321,3.591c-2.131-0.181-4.116-0.51-4.95-2.92    c-0.054,0.226-0.067,0.399-0.052,0.57c0.488,5.524,1.072,11.035,2.502,16.412c0.231,0.867-0.039,1.196-0.857,1.428    c-1.662,0.471-3.317,0.987-4.936,1.592c-1.108,0.414-2.107,0.419-3.218-0.015c-1.508-0.588-3.083-1.008-4.627-1.503    c-1.428-0.459-1.458-0.469-1.099-1.905c1.331-5.324,2.055-10.733,2.307-16.211c0.181-0.157,0.18-0.329,0.014-0.569    c-0.03,0.207-0.053,0.362-0.076,0.518c-0.69,1.105-1.597,1.932-2.928,2.154c-2.71,0.451-5.443,0.373-8.149,0.095    c-3.416-0.35-6.526-1.732-9.568-3.25c-0.08-0.048-0.159-0.095-0.239-0.143c-0.153-0.059-0.306-0.118-0.462-0.176    c-0.042-0.045-0.08-0.093-0.126-0.131c-0.007-0.005-0.052,0.037-0.079,0.057c0.049,0.041,0.099,0.082,0.148,0.123    C26.101,48.811,26.211,48.921,26.322,49.031z M38.963,57.133l0.012-0.015c-0.703,0.261-0.881,0.693-0.438,1.33    c-0.063,1.318-0.01,2.629,0.109,3.944c0.055,0.604,0.417,1.124,0.324,1.762c-0.186,1.285,0.077,2.552,0.25,3.819    c0.137,1.595,0.268,3.188,0.411,4.782c0.212,2.368,0.432,4.736,0.648,7.104c-0.092,0.959,0.024,1.899,0.244,2.832    c-0.067,1.463,0.311,2.886,0.386,4.336c0.012,0.14,0.024,0.278,0.036,0.418c0.314,4.046,0.549,8.099,1.06,12.127    c0.029,0.229-0.21,0.8,0.399,0.611c0.345-0.107,0.937-0.248,0.494-0.877c-0.001-0.128-0.002-0.257-0.004-0.385    c0.347-1.153,0.18-2.335,0.1-3.49c-0.1-1.448,0.153-2.926-0.314-4.347c-0.013-0.214-0.026-0.428-0.039-0.642    c-0.002-0.635-0.005-1.27-0.007-1.905c-0.003-0.305-0.006-0.61-0.009-0.915c-0.116-1.515,0.045-3.052-0.38-4.541    c-0.133-1.076,0.308-2.197-0.25-3.241c0.009-0.648,0.019-1.297,0.028-1.944c-0.004-0.213-0.009-0.426-0.014-0.638    c-0.006-0.138-0.012-0.274-0.018-0.412c0.072-0.221-0.157-0.305-0.213-0.467c-0.077-0.871,0.286-1.771-0.176-2.615    c-0.015-0.14-0.03-0.279-0.045-0.419c0.093-1.99-0.175-3.961-0.325-5.938c-0.046-0.615,0.093-1.28-0.288-1.851    c-0.098-0.648,0.229-1.305-0.039-1.949c0.032-0.577-0.354-1.1-0.216-1.689c0.015-0.145,0.029-0.289,0.044-0.435    c-0.093-1.39-0.092-2.79-0.436-4.153c-0.016-0.146-0.032-0.29-0.048-0.436c0.046-0.605-0.223-0.452-0.525-0.218    c-0.238-0.037-0.371,0.146-0.539,0.257C39.11,57.001,39.037,57.066,38.963,57.133z M62.566,87.652    c-0.021,0.643-0.376,1.283-0.012,1.928c-0.344,0.394-0.102,0.87-0.184,1.301c-0.103,0.216-0.098,0.437-0.021,0.659    c-0.059,1.724-0.115,3.447-0.174,5.171c-0.178,0.926-0.059,1.856-0.016,2.783c0.016,0.354,0.271,0.674,0.574,0.683    c0.437,0.012,0.293-0.444,0.266-0.671c-0.213-1.767,0.404-3.45,0.494-5.187c0.039-0.748-0.218-1.506,0.038-2.234    c0.313-0.895,0.376-1.804,0.291-2.734c0.022-0.287,0.044-0.574,0.066-0.86c-0.146-1.233,0.425-2.376,0.428-3.604    c0.003-1.702,0.001-3.431,0.28-5.101C65,77.37,65.25,74.963,65.182,72.52c0.41-0.776,0.027-1.633,0.21-2.406    c0.505-2.138,0.299-4.334,0.637-6.48c0.463-1.266,0.231-2.575,0.244-3.869c0.392-0.672,0.155-1.438,0.319-2.149    c0.059-0.257-0.223-0.302-0.449-0.282l0.018,0.016c-0.043-0.183-0.199-0.212-0.344-0.26c-0.076-0.173-0.219-0.215-0.393-0.198    c-0.285-0.083-0.49-0.418-0.895-0.272c0,0.6,0,1.203,0,1.806c-0.25,0.494-0.254,1.019-0.193,1.552    c-0.055,0.752-0.107,1.505-0.164,2.257c-0.233,3.126-0.469,6.253-0.703,9.379c0.129,0.783,0.147,1.537-0.063,2.338    c-0.239,0.905-0.409,1.887-0.313,2.804c0.089,0.851,0.154,1.662-0.037,2.491c-0.534,1.37-0.11,2.824-0.391,4.243    C62.398,84.829,62.581,86.26,62.566,87.652z M15.896,29.143c1.987-1.424,4.076-1.9,6.232-2.102    c8.631-0.805,16.486,1.512,23.738,6.069c1.89,1.188,3.953,2.498,4.591,4.7c0.48,1.656,1.333,1.589,2.517,1.518    c0.251-0.016,0.507-0.028,0.755,0.004c0.541,0.068,0.78-0.144,0.844-0.691c0.092-0.799,0.441-1.494,0.949-2.132    c1.977-2.488,4.57-4.175,7.365-5.546c8.128-3.988,16.501-5.844,25.406-2.738c-0.004,0.022,0.031-0.048,0.016-0.104    c-0.037-0.138-0.096-0.271-0.151-0.402c-1.663-3.96-4.729-6.804-8.218-8.911c-7.802-4.712-16.037-8.639-24.346-12.393    c-0.982-0.444-1.918-1.396-2.871-1.39c-0.999,0.006-1.972,0.927-2.99,1.37c-7.369,3.211-14.51,6.885-21.616,10.629    c-1.744,0.919-3.585,1.723-4.996,3.172c-2.135,2.194-4.241,4.418-6.226,6.753C16.421,27.508,16.055,28.107,15.896,29.143z     M89.279,41.685c-1.004,0.273-1.892,0.394-2.785,0.237c-0.533-0.094-0.682,0.242-0.857,0.613c-1.098,2.313-2.517,4.455-3.67,6.732    c-1.888,3.729-5.112,5.645-8.877,6.869c-1.639,0.533-3.325,0.933-5.033,1.211c-0.342,0.056-0.705,0.041-0.746,0.577    c-0.193,2.538-0.428,5.072-0.635,7.609c-0.162,1.966-0.293,3.934-0.463,5.897c-0.342,3.923-0.707,7.844-1.051,11.766    c-0.168,1.93-0.3,3.863-0.465,5.793c-0.295,3.473-0.76,6.929-0.842,10.421c-0.02,0.872,0.256,1.177,1.081,1.082    c0.394-0.045,0.79-0.086,1.185-0.087c1.111-0.004,1.596-0.529,1.844-1.646c2.135-9.594,4.346-19.171,6.495-28.762    c0.185-0.823,0.567-1.335,1.276-1.726c3.027-1.669,6.014-3.413,9.072-5.023c1.179-0.621,1.88-1.466,2.277-2.7    c0.725-2.242,0.897-4.589,1.367-6.878c0.303-1.481,0.125-3.039,0.363-4.516C89.214,46.69,89.088,44.229,89.279,41.685z     M15.758,46.726c0.137,2.457,0.292,4.915,0.806,7.307c0.476,2.216,0.603,4.502,1.383,6.659c0.401,1.107,1.025,1.897,2.096,2.461    c2.997,1.578,5.947,3.243,8.91,4.885c0.78,0.432,1.445,0.846,1.682,1.91c2.089,9.369,4.253,18.721,6.414,28.074    c0.559,2.417,0.663,2.469,3.154,2.472c0.036,0,0.072-0.005,0.108-0.001c0.688,0.069,0.96-0.181,0.873-0.921    c-0.185-1.577-0.299-3.163-0.434-4.746c-0.539-6.316-1.067-12.634-1.612-18.95c-0.499-5.778-1.026-11.555-1.507-17.335    c-0.053-0.641-0.21-0.903-0.892-1.057c-3.069-0.692-5.989-1.823-8.789-3.258c-1.378-0.706-2.482-1.69-3.269-3.052    c-1.369-2.37-2.891-4.656-4.152-7.08c-0.745-1.433-1.446-2.518-3.278-2.026c-0.19,0.052-0.432-0.032-0.635-0.099    c-0.73-0.237-0.876,0.125-0.866,0.759C15.774,44.061,15.758,45.394,15.758,46.726z M89.34,36.305c0.037,0,0.075,0,0.113,0    c0-0.72-0.014-1.44,0.002-2.161c0.08-3.52-0.99-4.969-4.389-5.889c-0.555-0.15-1.122-0.272-1.691-0.352    c-5.977-0.827-11.691,0.199-17.206,2.511c-3.471,1.455-6.774,3.196-9.42,5.965c-0.705,0.737-1.315,1.538-1.46,2.591    c-0.168,1.231,0.568,2.117,1.791,2.175c0.58,0.027,1.151-0.01,1.717-0.153c1.43-0.362,2.863-0.706,4.291-1.077    c5.773-1.504,11.555-1.981,17.39-0.3c2.069,0.597,4.11,1.314,6.265,1.596c1.613,0.212,2.557-0.562,2.594-2.203    C89.356,38.106,89.34,37.206,89.34,36.305z M15.626,36.399c0,0.546-0.036,1.377,0.007,2.202c0.096,1.856,1.265,2.802,3.066,2.564    c1.003-0.132,1.973-0.387,2.941-0.665c3.988-1.146,7.994-2.146,12.204-1.947c3.441,0.161,6.759,0.958,10.079,1.781    c1.357,0.337,2.701,0.802,4.121,0.772c1.532-0.031,2.328-1.263,1.762-2.684c-0.523-1.312-1.492-2.283-2.561-3.148    c-3.468-2.806-7.45-4.631-11.681-5.912c-4.993-1.513-10.085-2.142-15.234-0.946c-1.911,0.443-4.052,0.875-4.447,3.401    C15.661,33.24,15.454,34.669,15.626,36.399z M47.988,59.911c0.024,0.003,0.049,0.005,0.073,0.008    c-0.154,1.479-0.292,2.959-0.472,4.434c-0.062,0.51,0.086,0.764,0.568,0.979c4.292,1.926,4.28,1.915,8.498,0.063    c0.664-0.292,0.801-0.646,0.726-1.301c-0.204-1.754-0.354-3.514-0.521-5.271c-0.516-5.451-1.028-10.902-1.541-16.354    c-0.035-0.373,0.091-0.791-0.526-0.87c-1.129-0.146-2.282-0.486-3.38-0.194c-0.606,0.16-1.685-0.366-1.801,0.961    C49.097,48.217,48.533,54.063,47.988,59.911z M59.308,66.367c-2.212-8.092-2.085-16.489-3.301-24.709    c-0.106,0.253-0.126,0.497-0.104,0.736c0.653,7.132,1.367,14.259,1.909,21.399C57.907,65.036,58.51,65.663,59.308,66.367z     M49.042,41.903c-0.085-0.017-0.17-0.033-0.255-0.051c-0.032,0.192-0.076,0.384-0.094,0.577c-0.277,2.916-0.544,5.833-0.828,8.749    c-0.282,2.896-0.485,5.804-0.903,8.68c-0.324,2.229-0.926,4.419-1.42,6.699c0.899-0.775,1.426-1.543,1.512-2.763    c0.296-4.195,0.776-8.379,1.167-12.568C48.51,48.12,48.769,45.011,49.042,41.903z M54.953,40.966    c-0.1-0.849-0.496-1.077-1.193-1.023c-0.785,0.06-1.579,0.032-2.369,0.015c-0.639-0.014-0.848,0.308-0.854,1.015    C52.029,40.35,53.438,40.726,54.953,40.966z M56.82,44.934c0.086,0.007,0.173,0.015,0.26,0.022    c0.104-0.922,0.215-1.845,0.311-2.768c0.029-0.285-0.15-0.361-0.402-0.334c-0.278,0.03-0.332,0.206-0.316,0.446    C56.725,43.179,56.771,44.056,56.82,44.934z M47.878,44.305c0.055,0,0.109-0.001,0.164-0.001c0.069-0.629,0.136-1.258,0.208-1.886    c0.027-0.24-0.007-0.439-0.302-0.445c-0.316-0.006-0.318,0.227-0.293,0.446C47.723,43.049,47.803,43.677,47.878,44.305z"/></g></g><text x="0" y="120" fill="#000000" font-size="5px" font-weight="bold" font-family="'Helvetica Neue', Helvetica, Arial-Unicode, Arial, Sans-serif">Created by josh</text><text x="0" y="125" fill="#000000" font-size="5px" font-weight="bold" font-family="'Helvetica Neue', Helvetica, Arial-Unicode, Arial, Sans-serif">from the Noun Project</text></svg>